<mxfile host="app.diagrams.net" agent="Mozilla/5.0 (Windows NT 10.0; Win64; x64) AppleWebKit/537.36 (KHTML, like Gecko) Chrome/138.0.0.0 Safari/537.36" version="27.2.0">
  <diagram name="Страница — 1" id="8HGw8gMmi3oTObi8Yem4">
    <mxGraphModel dx="1042" dy="623" grid="1" gridSize="10" guides="1" tooltips="1" connect="1" arrows="1" fold="1" page="1" pageScale="1" pageWidth="827" pageHeight="1169" math="0" shadow="0">
      <root>
        <mxCell id="0" />
        <mxCell id="1" parent="0" />
        <mxCell id="RzbWhX6-1laXUBkcnok2-1" value="&lt;div style=&quot;font-family: Consolas, &amp;quot;Courier New&amp;quot;, monospace; font-size: 14px; line-height: 19px; white-space: pre;&quot;&gt;&lt;b style=&quot;&quot;&gt;&lt;font style=&quot;color: light-dark(rgb(31, 31, 31), rgb(255, 255, 255));&quot;&gt;&lt;span&gt;CoffeeType&lt;/span&gt;(&lt;span&gt;Enum&lt;/span&gt;)&lt;/font&gt;&lt;/b&gt;&lt;/div&gt;&lt;div style=&quot;font-family: Consolas, &amp;quot;Courier New&amp;quot;, monospace; font-size: 14px; line-height: 19px; white-space: pre;&quot;&gt;&lt;b&gt;&lt;font style=&quot;color: light-dark(rgb(31, 31, 31), rgb(255, 255, 255));&quot;&gt;&lt;br&gt;&lt;/font&gt;&lt;/b&gt;&lt;/div&gt;&lt;div style=&quot;font-family: Consolas, &amp;quot;Courier New&amp;quot;, monospace; font-size: 14px; line-height: 19px; white-space: pre;&quot;&gt;&lt;div style=&quot;line-height: 19px;&quot;&gt;&lt;div style=&quot;&quot;&gt;&lt;font style=&quot;color: light-dark(rgb(31, 31, 31), rgb(255, 255, 255));&quot;&gt;&lt;span&gt;espresso&lt;/span&gt; &lt;/font&gt;&lt;/div&gt;&lt;div style=&quot;&quot;&gt;&lt;span&gt;&lt;font style=&quot;color: light-dark(rgb(31, 31, 31), rgb(255, 255, 255));&quot;&gt;&lt;span&gt;americano&lt;/span&gt; &lt;/font&gt;&lt;/span&gt;&lt;/div&gt;&lt;div style=&quot;&quot;&gt;&lt;span&gt;&lt;font style=&quot;color: light-dark(rgb(31, 31, 31), rgb(255, 255, 255));&quot;&gt;&lt;span&gt;latte&lt;/span&gt; &lt;/font&gt;&lt;/span&gt;&lt;/div&gt;&lt;div style=&quot;&quot;&gt;&lt;font style=&quot;&quot;&gt;&lt;span style=&quot;color: rgb(79, 193, 255);&quot;&gt;&lt;font style=&quot;color: light-dark(rgb(31, 31, 31), rgb(255, 255, 255));&quot;&gt;cappuccino&lt;/font&gt;&lt;/span&gt;&lt;font style=&quot;color: light-dark(rgb(31, 31, 31), rgb(255, 255, 255));&quot;&gt; &lt;/font&gt;&lt;/font&gt;&lt;/div&gt;&lt;/div&gt;&lt;/div&gt;" style="whiteSpace=wrap;html=1;aspect=fixed;align=center;" parent="1" vertex="1">
          <mxGeometry x="320" y="480" width="160" height="160" as="geometry" />
        </mxCell>
        <mxCell id="W5bGAjuY0D4W2ag-sXqx-1" value="&lt;div style=&quot;font-family: Consolas, &amp;quot;Courier New&amp;quot;, monospace; font-size: 14px; line-height: 19px; white-space: pre;&quot;&gt;&lt;b&gt;Coffee(ABC)&lt;/b&gt;&lt;/div&gt;&lt;div style=&quot;font-family: Consolas, &amp;quot;Courier New&amp;quot;, monospace; font-size: 14px; line-height: 19px; white-space: pre;&quot;&gt;&lt;b&gt;&lt;br&gt;&lt;/b&gt;&lt;/div&gt;&lt;div style=&quot;font-family: Consolas, &amp;quot;Courier New&amp;quot;, monospace; font-size: 14px; line-height: 19px; white-space: pre;&quot;&gt;get_coffe&lt;b&gt;()&lt;/b&gt;&lt;/div&gt;" style="whiteSpace=wrap;html=1;aspect=fixed;align=center;" parent="1" vertex="1">
          <mxGeometry x="320" y="40" width="160" height="160" as="geometry" />
        </mxCell>
        <mxCell id="W5bGAjuY0D4W2ag-sXqx-2" value="&lt;div style=&quot;font-family: Consolas, &amp;quot;Courier New&amp;quot;, monospace; font-size: 14px; line-height: 19px; white-space: pre;&quot;&gt;&lt;b&gt;CoffeeMachine(ABC)&lt;/b&gt;&lt;/div&gt;&lt;div style=&quot;font-family: Consolas, &amp;quot;Courier New&amp;quot;, monospace; font-size: 14px; line-height: 19px; white-space: pre;&quot;&gt;&lt;b&gt;&lt;br&gt;&lt;/b&gt;&lt;/div&gt;&lt;div style=&quot;font-family: Consolas, &amp;quot;Courier New&amp;quot;, monospace; font-size: 14px; line-height: 19px; white-space: pre;&quot;&gt;brew_coffee&lt;b&gt;()&lt;/b&gt;&lt;/div&gt;" style="whiteSpace=wrap;html=1;aspect=fixed;align=center;" parent="1" vertex="1">
          <mxGeometry x="320" y="280" width="160" height="160" as="geometry" />
        </mxCell>
        <mxCell id="W5bGAjuY0D4W2ag-sXqx-3" value="&lt;div style=&quot;font-family: Consolas, &amp;quot;Courier New&amp;quot;, monospace; font-size: 14px; line-height: 19px; white-space: pre;&quot;&gt;&lt;b&gt;Espresso(Coffee)&lt;/b&gt;&lt;/div&gt;&lt;div style=&quot;font-family: Consolas, &amp;quot;Courier New&amp;quot;, monospace; font-size: 14px; line-height: 19px; white-space: pre;&quot;&gt;get_coffe&lt;b&gt;()&lt;/b&gt;&lt;/div&gt;" style="rounded=0;whiteSpace=wrap;html=1;" parent="1" vertex="1">
          <mxGeometry x="570" y="40" width="130" height="60" as="geometry" />
        </mxCell>
        <mxCell id="W5bGAjuY0D4W2ag-sXqx-4" value="&lt;div style=&quot;font-family: Consolas, &amp;quot;Courier New&amp;quot;, monospace; font-size: 14px; line-height: 19px; white-space: pre;&quot;&gt;&lt;b&gt;Americano(Coffee)&lt;/b&gt;&lt;/div&gt;&lt;div style=&quot;font-family: Consolas, &amp;quot;Courier New&amp;quot;, monospace; font-size: 14px; line-height: 19px; white-space: pre;&quot;&gt;get_coffe&lt;b&gt;()&lt;/b&gt;&lt;/div&gt;" style="rounded=0;whiteSpace=wrap;html=1;" parent="1" vertex="1">
          <mxGeometry x="570" y="120" width="130" height="60" as="geometry" />
        </mxCell>
        <mxCell id="W5bGAjuY0D4W2ag-sXqx-5" value="&lt;div style=&quot;font-family: Consolas, &amp;quot;Courier New&amp;quot;, monospace; font-size: 14px; line-height: 19px; white-space: pre;&quot;&gt;&lt;b&gt;Cappuccino(Coffee)&lt;/b&gt;&lt;/div&gt;&lt;div style=&quot;font-family: Consolas, &amp;quot;Courier New&amp;quot;, monospace; font-size: 14px; line-height: 19px; white-space: pre;&quot;&gt;get_coffe&lt;b&gt;()&lt;/b&gt;&lt;/div&gt;" style="rounded=0;whiteSpace=wrap;html=1;" parent="1" vertex="1">
          <mxGeometry x="570" y="200" width="130" height="60" as="geometry" />
        </mxCell>
        <mxCell id="W5bGAjuY0D4W2ag-sXqx-6" value="&lt;div style=&quot;font-family: Consolas, &amp;quot;Courier New&amp;quot;, monospace; font-size: 14px; line-height: 19px; white-space: pre;&quot;&gt;&lt;b&gt;Latte(Coffee)&lt;/b&gt;&lt;/div&gt;&lt;div style=&quot;font-family: Consolas, &amp;quot;Courier New&amp;quot;, monospace; font-size: 14px; line-height: 19px; white-space: pre;&quot;&gt;get_coffe&lt;b&gt;()&lt;/b&gt;&lt;/div&gt;" style="rounded=0;whiteSpace=wrap;html=1;" parent="1" vertex="1">
          <mxGeometry x="570" y="280" width="130" height="60" as="geometry" />
        </mxCell>
        <object label="" id="W5bGAjuY0D4W2ag-sXqx-7">
          <mxCell style="endArrow=classic;html=1;rounded=0;exitX=1;exitY=0.5;exitDx=0;exitDy=0;" parent="1" source="W5bGAjuY0D4W2ag-sXqx-1" edge="1">
            <mxGeometry relative="1" as="geometry">
              <mxPoint x="480" y="69.5" as="sourcePoint" />
              <mxPoint x="570" y="70" as="targetPoint" />
            </mxGeometry>
          </mxCell>
        </object>
        <mxCell id="W5bGAjuY0D4W2ag-sXqx-11" value="" style="endArrow=classic;html=1;rounded=0;entryX=0;entryY=0.5;entryDx=0;entryDy=0;exitX=1;exitY=0.5;exitDx=0;exitDy=0;" parent="1" source="W5bGAjuY0D4W2ag-sXqx-1" target="W5bGAjuY0D4W2ag-sXqx-4" edge="1">
          <mxGeometry relative="1" as="geometry">
            <mxPoint x="480" y="80" as="sourcePoint" />
            <mxPoint x="570" y="80.5" as="targetPoint" />
          </mxGeometry>
        </mxCell>
        <mxCell id="W5bGAjuY0D4W2ag-sXqx-15" value="" style="endArrow=classic;html=1;rounded=0;entryX=0;entryY=0.5;entryDx=0;entryDy=0;" parent="1" target="W5bGAjuY0D4W2ag-sXqx-5" edge="1">
          <mxGeometry relative="1" as="geometry">
            <mxPoint x="480" y="120" as="sourcePoint" />
            <mxPoint x="570" y="190" as="targetPoint" />
          </mxGeometry>
        </mxCell>
        <mxCell id="W5bGAjuY0D4W2ag-sXqx-19" value="" style="endArrow=classic;html=1;rounded=0;entryX=0;entryY=0.5;entryDx=0;entryDy=0;exitX=1.003;exitY=0.568;exitDx=0;exitDy=0;exitPerimeter=0;" parent="1" source="W5bGAjuY0D4W2ag-sXqx-1" edge="1">
          <mxGeometry relative="1" as="geometry">
            <mxPoint x="490" y="220" as="sourcePoint" />
            <mxPoint x="580" y="330" as="targetPoint" />
          </mxGeometry>
        </mxCell>
        <mxCell id="W5bGAjuY0D4W2ag-sXqx-39" value="" style="edgeStyle=none;rounded=0;orthogonalLoop=1;jettySize=auto;html=1;" parent="1" source="W5bGAjuY0D4W2ag-sXqx-26" target="RzbWhX6-1laXUBkcnok2-1" edge="1">
          <mxGeometry relative="1" as="geometry" />
        </mxCell>
        <mxCell id="W5bGAjuY0D4W2ag-sXqx-40" value="uses" style="edgeLabel;html=1;align=center;verticalAlign=middle;resizable=0;points=[];" parent="W5bGAjuY0D4W2ag-sXqx-39" vertex="1" connectable="0">
          <mxGeometry x="-0.0682" relative="1" as="geometry">
            <mxPoint as="offset" />
          </mxGeometry>
        </mxCell>
        <mxCell id="W5bGAjuY0D4W2ag-sXqx-26" value="&lt;div style=&quot;font-family: Consolas, &amp;quot;Courier New&amp;quot;, monospace; font-size: 14px; line-height: 19px; white-space: pre;&quot;&gt;&lt;b&gt;IncandoBrand&lt;/b&gt;&lt;/div&gt;&lt;div style=&quot;font-family: Consolas, &amp;quot;Courier New&amp;quot;, monospace; font-size: 14px; line-height: 19px; white-space: pre;&quot;&gt;&lt;b&gt;(CoffeMachine)&lt;/b&gt;&lt;/div&gt;" style="whiteSpace=wrap;html=1;aspect=fixed;align=center;" parent="1" vertex="1">
          <mxGeometry x="570" y="400" width="160" height="160" as="geometry" />
        </mxCell>
        <mxCell id="W5bGAjuY0D4W2ag-sXqx-29" value="" style="edgeStyle=orthogonalEdgeStyle;rounded=0;orthogonalLoop=1;jettySize=auto;html=1;entryX=0.32;entryY=0.005;entryDx=0;entryDy=0;entryPerimeter=0;exitX=0;exitY=0.5;exitDx=0;exitDy=0;" parent="1" source="W5bGAjuY0D4W2ag-sXqx-1" target="W5bGAjuY0D4W2ag-sXqx-27" edge="1">
          <mxGeometry relative="1" as="geometry">
            <mxPoint x="210" y="330" as="sourcePoint" />
            <mxPoint x="250" y="320" as="targetPoint" />
            <Array as="points">
              <mxPoint x="240" y="120" />
              <mxPoint x="240" y="480" />
              <mxPoint x="128" y="480" />
            </Array>
          </mxGeometry>
        </mxCell>
        <mxCell id="W5bGAjuY0D4W2ag-sXqx-30" value="accepts obj" style="edgeLabel;html=1;align=center;verticalAlign=middle;resizable=0;points=[];" parent="W5bGAjuY0D4W2ag-sXqx-29" vertex="1" connectable="0">
          <mxGeometry x="0.0826" y="2" relative="1" as="geometry">
            <mxPoint as="offset" />
          </mxGeometry>
        </mxCell>
        <mxCell id="W5bGAjuY0D4W2ag-sXqx-27" value="order_coffee()" style="ellipse;whiteSpace=wrap;html=1;" parent="1" vertex="1">
          <mxGeometry x="90" y="520" width="120" height="80" as="geometry" />
        </mxCell>
        <mxCell id="W5bGAjuY0D4W2ag-sXqx-28" value="input_order()" style="ellipse;whiteSpace=wrap;html=1;" parent="1" vertex="1">
          <mxGeometry x="80" y="620" width="120" height="80" as="geometry" />
        </mxCell>
        <mxCell id="W5bGAjuY0D4W2ag-sXqx-31" value="" style="endArrow=classic;html=1;rounded=0;entryX=1;entryY=0.5;entryDx=0;entryDy=0;" parent="1" target="W5bGAjuY0D4W2ag-sXqx-3" edge="1">
          <mxGeometry width="50" height="50" relative="1" as="geometry">
            <mxPoint x="720" y="480" as="sourcePoint" />
            <mxPoint x="800" y="80" as="targetPoint" />
            <Array as="points">
              <mxPoint x="800" y="480" />
              <mxPoint x="800" y="70" />
            </Array>
          </mxGeometry>
        </mxCell>
        <mxCell id="W5bGAjuY0D4W2ag-sXqx-35" value="creates" style="edgeLabel;html=1;align=center;verticalAlign=middle;resizable=0;points=[];" parent="W5bGAjuY0D4W2ag-sXqx-31" vertex="1" connectable="0">
          <mxGeometry x="-0.3519" y="-2" relative="1" as="geometry">
            <mxPoint as="offset" />
          </mxGeometry>
        </mxCell>
        <mxCell id="W5bGAjuY0D4W2ag-sXqx-32" value="" style="endArrow=classic;html=1;rounded=0;entryX=1;entryY=0.5;entryDx=0;entryDy=0;" parent="1" target="W5bGAjuY0D4W2ag-sXqx-4" edge="1">
          <mxGeometry width="50" height="50" relative="1" as="geometry">
            <mxPoint x="800" y="150" as="sourcePoint" />
            <mxPoint x="780" y="150" as="targetPoint" />
          </mxGeometry>
        </mxCell>
        <mxCell id="W5bGAjuY0D4W2ag-sXqx-33" value="" style="endArrow=classic;html=1;rounded=0;" parent="1" edge="1">
          <mxGeometry width="50" height="50" relative="1" as="geometry">
            <mxPoint x="800" y="240" as="sourcePoint" />
            <mxPoint x="700" y="240" as="targetPoint" />
          </mxGeometry>
        </mxCell>
        <mxCell id="W5bGAjuY0D4W2ag-sXqx-34" value="" style="endArrow=classic;html=1;rounded=0;" parent="1" edge="1">
          <mxGeometry width="50" height="50" relative="1" as="geometry">
            <mxPoint x="800" y="310" as="sourcePoint" />
            <mxPoint x="700" y="309.5" as="targetPoint" />
          </mxGeometry>
        </mxCell>
        <mxCell id="W5bGAjuY0D4W2ag-sXqx-37" value="" style="endArrow=classic;html=1;rounded=0;entryX=1;entryY=0.5;entryDx=0;entryDy=0;exitX=-0.022;exitY=0.42;exitDx=0;exitDy=0;exitPerimeter=0;" parent="1" source="W5bGAjuY0D4W2ag-sXqx-26" target="W5bGAjuY0D4W2ag-sXqx-2" edge="1">
          <mxGeometry width="50" height="50" relative="1" as="geometry">
            <mxPoint x="490" y="480" as="sourcePoint" />
            <mxPoint x="540" y="430" as="targetPoint" />
          </mxGeometry>
        </mxCell>
        <mxCell id="snbYXdjwkxBo-hDCDH-S-2" value="Text" style="edgeLabel;html=1;align=center;verticalAlign=middle;resizable=0;points=[];" vertex="1" connectable="0" parent="W5bGAjuY0D4W2ag-sXqx-37">
          <mxGeometry x="0.0282" y="3" relative="1" as="geometry">
            <mxPoint as="offset" />
          </mxGeometry>
        </mxCell>
        <mxCell id="snbYXdjwkxBo-hDCDH-S-3" value="inherits" style="edgeLabel;html=1;align=center;verticalAlign=middle;resizable=0;points=[];" vertex="1" connectable="0" parent="W5bGAjuY0D4W2ag-sXqx-37">
          <mxGeometry x="0.076" y="6" relative="1" as="geometry">
            <mxPoint as="offset" />
          </mxGeometry>
        </mxCell>
        <mxCell id="W5bGAjuY0D4W2ag-sXqx-41" value="&lt;b&gt;&lt;font style=&quot;font-size: 24px;&quot;&gt;Factory&lt;/font&gt;&lt;/b&gt;" style="text;html=1;align=center;verticalAlign=middle;resizable=0;points=[];autosize=1;strokeColor=none;fillColor=none;" parent="1" vertex="1">
          <mxGeometry x="50" y="50" width="110" height="40" as="geometry" />
        </mxCell>
      </root>
    </mxGraphModel>
  </diagram>
</mxfile>
